<svg enable-background="new 0 0 128 128" viewBox="0 0 128 128" xmlns="http://www.w3.org/2000/svg" xmlns:xlink="http://www.w3.org/1999/xlink"><linearGradient id="a"><stop offset=".5612" stop-color="#3949ab"/><stop offset=".802" stop-color="#2d3b9b"/><stop offset="1" stop-color="#283593"/></linearGradient><linearGradient id="b" gradientUnits="userSpaceOnUse" x1="46.0657" x2="46.0657" xlink:href="#a" y1="3.1183" y2="23.033"/><linearGradient id="c" gradientUnits="userSpaceOnUse" x1="81.8345" x2="81.8345" xlink:href="#a" y1="3.9999" y2="22.342"/><linearGradient id="d" gradientUnits="userSpaceOnUse" x1="63.95" x2="63.95" y1="26.8199" y2="123.24"><stop offset="0" stop-color="#3949ab"/><stop offset="1" stop-color="#283593"/></linearGradient><path d="m41.4 19.6 4.4-15.6h5l-4.4 16.5c-.3 1.6-1.8 2.7-3.2 2.3s-2.1-1.7-1.8-3.2z" fill="url(#b)"/><path d="m86.3 19.6-4.1-15.6h-4.9l4.1 16.5c.3 1.6 1.8 2.7 3.2 2.3 1.3-.4 2-1.7 1.7-3.2z" fill="url(#c)"/><path d="m49.4 5-4.1 15.2c-.2.9-.9 1.6-1.7 1.6-.1 0-.2 0-.3 0-.7-.2-1.2-1-1-1.9l4.2-14.9zm1.3-1h-5l-4.4 15.6c-.3 1.5.5 2.8 1.7 3.1.2 0 .4.1.5.1 1.2 0 2.4-1 2.7-2.4z" fill="#eee" opacity=".2"/><path d="m81.4 5 3.9 14.8c.2.9-.2 1.8-1 2-.1 0-.2 0-.3 0-.8 0-1.5-.7-1.7-1.6l-3.8-15.2zm.8-1h-4.9l4.1 16.5c.3 1.4 1.4 2.4 2.7 2.4.2 0 .4 0 .6-.1 1.3-.3 2-1.7 1.7-3.1-.1-.1-4.2-15.7-4.2-15.7z" fill="#eee" opacity=".2"/><path d="m113.8 107.4-35-59.2 7.4-25.9c1-2.8-1.1-5.9-4.1-5.8-2.3 0-18.2 11.4-18.2 11.4s-15.9-11.5-18.3-11.4c-2.8.1-4.8 3.1-3.9 5.8l7.3 25.9-34.9 59.2c-.7.9-.6 2.1.3 2.8 6.2 5.1 27.3 13.8 49.7 13.8s43.3-8.6 49.4-13.7c.9-.8 1-2 .3-2.9z" fill="url(#d)"/><g fill="#283593"><path d="m58.9 114.8 5.1-68.9v.2l5 68.7c.4 5.2-1.8 9-4.8 9.2s-5.5-4.1-5.3-9.2z" opacity=".2"/><path d="m27.9 107.6 29.9-60.3-.1.2-20.5 63.9c-1.5 4.8-5 7.5-7.9 6.5-2.7-1-3.4-5.7-1.4-10.3z" opacity=".2"/><path d="m100.8 107.6-30-60.3.1.2 20.5 63.9c1.5 4.8 5 7.5 7.9 6.5 2.8-1 3.5-5.7 1.5-10.3z" opacity=".2"/></g><path d="m78.8 48.2h-29.7l-2.4-8.5h34.5z" fill="#1a237e"/><path d="m82.3 19.5c.4.1.7.4.8.5.3.4.4.9.2 1.3 0 0 0 .1-.1.1l-7.4 25.9c-.2.8-.1 1.6.3 2.3l34.8 58.8c-6 4.6-25.3 12.6-46.8 12.6-21.6 0-41-8-47.1-12.5l34.7-58.7c.4-.7.5-1.5.3-2.3l-7.3-25.9v-.1c-.1-.4-.1-.9.2-1.3.1-.2.3-.4.7-.5 2.2.8 10.2 6.1 16.7 10.8.5.4 1.1.6 1.8.6s1.2-.2 1.8-.6c6.3-4.9 14.3-10.2 16.4-11m-.2-3c-2.3 0-18.2 11.4-18.2 11.4s-15.8-11.4-18.3-11.4c-2.8.1-4.8 3.1-3.9 5.8l7.3 25.9-34.9 59.2c-.7.9-.6 2.1.3 2.8 6.2 5.1 27.3 13.8 49.7 13.8s43.3-8.6 49.4-13.7c.8-.7 1-1.9.3-2.8l-35-59.3 7.4-25.9c.9-2.8-1.2-5.8-4.1-5.8z" fill="#eee" opacity=".2"/></svg>